# xmcd CD database file
#
# Track frame offsets:
#	150
#	17206
#	35943
#	49745
#	67699
#	88295
#	105272
#	124114
#	141492
#	156485
#	174838
#	206236
#
# Disc length: 3193 seconds
#
# Revision: 1
# Processed by: cddbd v1.5.2PL0 Copyright (c) Steve Scherf et al.
# Submitted via: CDex 1.51
#
DISCID=ab0c770c
DTITLE=Sevendust - Next
DYEAR=2005
DGENRE=Metal
TTITLE0=Hero
TTITLE1=Ugly
TTITLE2=Pieces
TTITLE3=Silence
TTITLE4=This Life
TTITLE5=Failure
TTITLE6=See and Believe
TTITLE7=The Last Song
TTITLE8=Desertion
TTITLE9=Never
TTITLE10=Shadows in Red
TTITLE11=Data
EXTD=YEAR: 2005
EXTT0=
EXTT1=
EXTT2=
EXTT3=
EXTT4=
EXTT5=
EXTT6=
EXTT7=
EXTT8=
EXTT9=
EXTT10=
EXTT11=
PLAYORDER=
